P3
# Created by GIMP version 2.10.8 PNM plug-in
16 16
255
255
255
255
255
255
255
255
255
255
160
153
56
160
153
56
160
153
56
160
153
56
160
153
56
160
153
56
160
153
56
160
153
56
160
153
56
160
153
56
255
255
255
255
255
255
255
255
255
255
255
255
255
255
255
255
255
255
160
153
56
160
153
56
160
153
56
160
153
56
160
153
56
160
153
56
160
153
56
160
153
56
160
153
56
160
153
56
255
255
255
255
255
255
255
255
255
255
255
255
255
255
255
255
255
255
160
153
56
160
153
56
160
153
56
160
153
56
160
153
56
160
153
56
160
153
56
160
153
56
160
153
56
160
153
56
255
255
255
255
255
255
255
255
255
255
255
255
255
255
255
160
153
56
160
153
56
160
153
56
160
153
56
160
153
56
160
153
56
160
153
56
160
153
56
160
153
56
160
153
56
160
153
56
160
153
56
255
255
255
255
255
255
255
255
255
255
255
255
160
153
56
160
153
56
160
153
56
160
153
56
160
153
56
160
153
56
160
153
56
160
153
56
160
153
56
160
153
56
160
153
56
160
153
56
255
255
255
255
255
255
255
255
255
255
255
255
160
153
56
160
153
56
160
153
56
160
153
56
160
153
56
160
153
56
160
153
56
160
153
56
160
153
56
160
153
56
160
153
56
160
153
56
255
255
255
255
255
255
255
255
255
255
255
255
160
153
56
160
153
56
160
153
56
160
153
56
160
153
56
160
153
56
160
153
56
160
153
56
160
153
56
160
153
56
160
153
56
160
153
56
255
255
255
255
255
255
255
255
255
255
255
255
160
153
56
160
153
56
160
153
56
160
153
56
160
153
56
160
153
56
160
153
56
160
153
56
160
153
56
160
153
56
160
153
56
160
153
56
255
255
255
255
255
255
255
255
255
160
153
56
160
153
56
160
153
56
160
153
56
160
153
56
160
153
56
160
153
56
160
153
56
160
153
56
160
153
56
160
153
56
160
153
56
160
153
56
160
153
56
255
255
255
255
255
255
160
153
56
160
153
56
160
153
56
160
153
56
160
153
56
160
153
56
160
153
56
160
153
56
160
153
56
160
153
56
160
153
56
160
153
56
160
153
56
160
153
56
255
255
255
255
255
255
160
153
56
160
153
56
160
153
56
160
153
56
160
153
56
160
153
56
160
153
56
160
153
56
160
153
56
160
153
56
160
153
56
160
153
56
160
153
56
160
153
56
255
255
255
255
255
255
160
153
56
160
153
56
160
153
56
160
153
56
160
153
56
160
153
56
160
153
56
160
153
56
160
153
56
160
153
56
160
153
56
160
153
56
160
153
56
160
153
56
255
255
255
255
255
255
160
153
56
160
153
56
160
153
56
160
153
56
160
153
56
160
153
56
160
153
56
160
153
56
160
153
56
160
153
56
160
153
56
160
153
56
160
153
56
160
153
56
255
255
255
160
153
56
160
153
56
160
153
56
160
153
56
160
153
56
160
153
56
160
153
56
160
153
56
160
153
56
160
153
56
160
153
56
160
153
56
160
153
56
160
153
56
160
153
56
160
153
56
160
153
56
160
153
56
160
153
56
160
153
56
160
153
56
160
153
56
160
153
56
160
153
56
160
153
56
160
153
56
160
153
56
160
153
56
160
153
56
160
153
56
160
153
56
160
153
56
160
153
56
160
153
56
160
153
56
160
153
56
160
153
56
160
153
56
160
153
56
160
153
56
160
153
56
160
153
56
160
153
56
160
153
56
160
153
56
160
153
56
160
153
56
160
153
56
