P3
# Created by GIMP version 2.10.8 PNM plug-in
64 8
255
33
33
33
33
33
33
33
33
33
33
33
33
33
33
33
33
33
33
33
33
33
33
33
33
33
33
33
33
33
33
33
33
33
33
33
33
33
33
33
33
33
33
33
33
33
33
33
33
33
33
33
33
33
33
33
33
33
33
33
33
33
33
33
33
33
33
33
33
33
33
33
33
33
33
33
33
33
33
33
33
33
33
33
33
33
33
33
33
33
33
33
33
33
33
33
33
33
33
33
33
33
33
33
33
33
33
33
33
33
33
33
33
33
33
33
33
33
33
33
33
33
33
33
33
33
33
33
33
33
33
33
33
33
33
33
33
33
33
33
33
33
33
33
33
33
33
33
33
33
33
33
33
33
33
33
33
33
33
33
33
33
33
33
33
33
33
33
33
33
33
33
33
33
33
33
33
33
33
33
33
33
33
33
33
33
33
33
33
33
33
33
33
33
33
33
156
0
0
156
0
0
156
0
0
156
0
0
90
0
0
156
0
0
90
0
0
90
0
0
156
0
0
90
0
0
156
0
0
156
0
0
156
0
0
156
0
0
90
0
0
156
0
0
90
0
0
90
0
0
90
0
0
90
0
0
90
0
0
90
0
0
90
0
0
90
0
0
90
0
0
90
0
0
90
0
0
90
0
0
90
0
0
90
0
0
90
0
0
90
0
0
90
0
0
90
0
0
90
0
0
90
0
0
90
0
0
90
0
0
90
0
0
90
0
0
90
0
0
90
0
0
90
0
0
90
0
0
90
0
0
90
0
0
90
0
0
90
0
0
90
0
0
90
0
0
90
0
0
90
0
0
90
0
0
90
0
0
90
0
0
90
0
0
90
0
0
90
0
0
90
0
0
90
0
0
90
0
0
90
0
0
33
33
33
33
33
33
156
0
0
90
0
0
90
0
0
90
0
0
90
0
0
156
0
0
90
0
0
90
0
0
156
0
0
90
0
0
156
0
0
90
0
0
90
0
0
90
0
0
90
0
0
156
0
0
90
0
0
90
0
0
90
0
0
90
0
0
90
0
0
90
0
0
90
0
0
90
0
0
90
0
0
90
0
0
90
0
0
90
0
0
90
0
0
90
0
0
90
0
0
90
0
0
90
0
0
90
0
0
90
0
0
90
0
0
90
0
0
90
0
0
90
0
0
90
0
0
90
0
0
90
0
0
90
0
0
90
0
0
90
0
0
90
0
0
90
0
0
90
0
0
90
0
0
90
0
0
90
0
0
90
0
0
90
0
0
90
0
0
90
0
0
90
0
0
90
0
0
90
0
0
90
0
0
90
0
0
90
0
0
90
0
0
33
33
33
33
33
33
156
0
0
156
0
0
156
0
0
90
0
0
90
0
0
156
0
0
90
0
0
90
0
0
156
0
0
90
0
0
156
0
0
156
0
0
156
0
0
90
0
0
90
0
0
156
0
0
90
0
0
90
0
0
90
0
0
90
0
0
90
0
0
90
0
0
90
0
0
90
0
0
90
0
0
90
0
0
90
0
0
90
0
0
90
0
0
90
0
0
90
0
0
90
0
0
90
0
0
90
0
0
90
0
0
90
0
0
90
0
0
90
0
0
90
0
0
90
0
0
90
0
0
90
0
0
90
0
0
90
0
0
90
0
0
90
0
0
90
0
0
90
0
0
90
0
0
90
0
0
90
0
0
90
0
0
90
0
0
90
0
0
90
0
0
90
0
0
90
0
0
90
0
0
90
0
0
90
0
0
90
0
0
90
0
0
33
33
33
33
33
33
156
0
0
90
0
0
90
0
0
90
0
0
90
0
0
156
0
0
90
0
0
90
0
0
156
0
0
90
0
0
156
0
0
90
0
0
90
0
0
90
0
0
90
0
0
156
0
0
90
0
0
90
0
0
90
0
0
90
0
0
90
0
0
90
0
0
90
0
0
90
0
0
90
0
0
90
0
0
90
0
0
90
0
0
90
0
0
90
0
0
90
0
0
90
0
0
90
0
0
90
0
0
90
0
0
90
0
0
90
0
0
90
0
0
90
0
0
90
0
0
90
0
0
90
0
0
90
0
0
90
0
0
90
0
0
90
0
0
90
0
0
90
0
0
90
0
0
90
0
0
90
0
0
90
0
0
90
0
0
90
0
0
90
0
0
90
0
0
90
0
0
90
0
0
90
0
0
90
0
0
90
0
0
90
0
0
33
33
33
33
33
33
156
0
0
90
0
0
90
0
0
90
0
0
90
0
0
156
0
0
90
0
0
90
0
0
156
0
0
90
0
0
156
0
0
90
0
0
90
0
0
90
0
0
90
0
0
156
0
0
90
0
0
90
0
0
90
0
0
90
0
0
90
0
0
90
0
0
90
0
0
90
0
0
90
0
0
90
0
0
90
0
0
90
0
0
90
0
0
90
0
0
90
0
0
90
0
0
90
0
0
90
0
0
90
0
0
90
0
0
90
0
0
90
0
0
90
0
0
90
0
0
90
0
0
90
0
0
90
0
0
90
0
0
90
0
0
90
0
0
90
0
0
90
0
0
90
0
0
90
0
0
90
0
0
90
0
0
90
0
0
90
0
0
90
0
0
90
0
0
90
0
0
90
0
0
90
0
0
90
0
0
90
0
0
90
0
0
33
33
33
33
33
33
156
0
0
90
0
0
90
0
0
90
0
0
90
0
0
156
0
0
156
0
0
156
0
0
156
0
0
90
0
0
156
0
0
156
0
0
156
0
0
156
0
0
90
0
0
156
0
0
156
0
0
156
0
0
156
0
0
90
0
0
90
0
0
90
0
0
90
0
0
90
0
0
90
0
0
90
0
0
90
0
0
90
0
0
90
0
0
90
0
0
90
0
0
90
0
0
90
0
0
90
0
0
90
0
0
90
0
0
90
0
0
90
0
0
90
0
0
90
0
0
90
0
0
90
0
0
90
0
0
90
0
0
90
0
0
90
0
0
90
0
0
90
0
0
90
0
0
90
0
0
90
0
0
90
0
0
90
0
0
90
0
0
90
0
0
90
0
0
90
0
0
90
0
0
90
0
0
90
0
0
90
0
0
90
0
0
33
33
33
33
33
33
33
33
33
33
33
33
33
33
33
33
33
33
33
33
33
33
33
33
33
33
33
33
33
33
33
33
33
33
33
33
33
33
33
33
33
33
33
33
33
33
33
33
33
33
33
33
33
33
33
33
33
33
33
33
33
33
33
33
33
33
33
33
33
33
33
33
33
33
33
33
33
33
33
33
33
33
33
33
33
33
33
33
33
33
33
33
33
33
33
33
33
33
33
33
33
33
33
33
33
33
33
33
33
33
33
33
33
33
33
33
33
33
33
33
33
33
33
33
33
33
33
33
33
33
33
33
33
33
33
33
33
33
33
33
33
33
33
33
33
33
33
33
33
33
33
33
33
33
33
33
33
33
33
33
33
33
33
33
33
33
33
33
33
33
33
33
33
33
33
33
33
33
33
33
33
33
33
33
33
33
33
33
33
33
33
33
33
33
33
