P3
# Created by GIMP version 2.10.8 PNM plug-in
64 8
255
33
33
33
33
33
33
33
33
33
33
33
33
33
33
33
33
33
33
33
33
33
33
33
33
33
33
33
33
33
33
33
33
33
33
33
33
33
33
33
33
33
33
33
33
33
33
33
33
33
33
33
33
33
33
33
33
33
33
33
33
33
33
33
33
33
33
33
33
33
33
33
33
33
33
33
33
33
33
33
33
33
33
33
33
33
33
33
33
33
33
33
33
33
33
33
33
33
33
33
33
33
33
33
33
33
33
33
33
33
33
33
33
33
33
33
33
33
33
33
33
33
33
33
33
33
33
33
33
33
33
33
33
33
33
33
33
33
33
33
33
33
33
33
33
33
33
33
33
33
33
33
33
33
33
33
33
33
33
33
33
33
33
33
33
33
33
33
33
33
33
33
33
33
33
33
33
33
33
33
33
33
33
33
33
33
33
33
33
33
33
33
33
33
33
33
66
140
0
66
140
0
66
140
0
33
66
0
33
66
0
66
140
0
66
140
0
66
140
0
66
140
0
33
66
0
66
140
0
66
140
0
66
140
0
66
140
0
33
66
0
66
140
0
66
140
0
66
140
0
66
140
0
33
66
0
66
140
0
66
140
0
66
140
0
66
140
0
66
140
0
33
66
0
33
66
0
33
66
0
33
66
0
33
66
0
33
66
0
33
66
0
33
66
0
33
66
0
33
66
0
33
66
0
33
66
0
33
66
0
33
66
0
33
66
0
33
66
0
33
66
0
33
66
0
33
66
0
33
66
0
33
66
0
33
66
0
33
66
0
33
66
0
33
66
0
33
66
0
33
66
0
33
66
0
33
66
0
33
66
0
33
66
0
33
66
0
33
66
0
33
66
0
33
66
0
33
66
0
33
66
0
33
33
33
33
33
33
66
140
0
33
66
0
66
140
0
33
66
0
33
66
0
66
140
0
33
66
0
33
66
0
66
140
0
33
66
0
66
140
0
33
66
0
33
66
0
66
140
0
33
66
0
66
140
0
33
66
0
33
66
0
33
66
0
33
66
0
33
66
0
33
66
0
66
140
0
33
66
0
33
66
0
33
66
0
33
66
0
33
66
0
33
66
0
33
66
0
33
66
0
33
66
0
33
66
0
33
66
0
33
66
0
33
66
0
33
66
0
33
66
0
33
66
0
33
66
0
33
66
0
33
66
0
33
66
0
33
66
0
33
66
0
33
66
0
33
66
0
33
66
0
33
66
0
33
66
0
33
66
0
33
66
0
33
66
0
33
66
0
33
66
0
33
66
0
33
66
0
33
66
0
33
66
0
33
66
0
33
66
0
33
66
0
33
33
33
33
33
33
66
140
0
66
140
0
66
140
0
66
140
0
33
66
0
66
140
0
33
66
0
33
66
0
66
140
0
33
66
0
66
140
0
33
66
0
33
66
0
66
140
0
33
66
0
66
140
0
66
140
0
66
140
0
66
140
0
33
66
0
33
66
0
33
66
0
66
140
0
33
66
0
33
66
0
33
66
0
33
66
0
33
66
0
33
66
0
33
66
0
33
66
0
33
66
0
33
66
0
33
66
0
33
66
0
33
66
0
33
66
0
33
66
0
33
66
0
33
66
0
33
66
0
33
66
0
33
66
0
33
66
0
33
66
0
33
66
0
33
66
0
33
66
0
33
66
0
33
66
0
33
66
0
33
66
0
33
66
0
33
66
0
33
66
0
33
66
0
33
66
0
33
66
0
33
66
0
33
66
0
33
66
0
33
66
0
33
33
33
33
33
33
66
140
0
33
66
0
33
66
0
66
140
0
33
66
0
66
140
0
33
66
0
33
66
0
66
140
0
33
66
0
66
140
0
33
66
0
33
66
0
66
140
0
33
66
0
33
66
0
33
66
0
33
66
0
66
140
0
33
66
0
33
66
0
33
66
0
66
140
0
33
66
0
33
66
0
33
66
0
33
66
0
33
66
0
33
66
0
33
66
0
33
66
0
33
66
0
33
66
0
33
66
0
33
66
0
33
66
0
33
66
0
33
66
0
33
66
0
33
66
0
33
66
0
33
66
0
33
66
0
33
66
0
33
66
0
33
66
0
33
66
0
33
66
0
33
66
0
33
66
0
33
66
0
33
66
0
33
66
0
33
66
0
33
66
0
33
66
0
33
66
0
33
66
0
33
66
0
33
66
0
33
66
0
33
66
0
33
33
33
33
33
33
66
140
0
33
66
0
33
66
0
66
140
0
33
66
0
66
140
0
33
66
0
33
66
0
66
140
0
33
66
0
66
140
0
33
66
0
33
66
0
66
140
0
33
66
0
33
66
0
33
66
0
33
66
0
66
140
0
33
66
0
33
66
0
33
66
0
66
140
0
33
66
0
33
66
0
33
66
0
33
66
0
33
66
0
33
66
0
33
66
0
33
66
0
33
66
0
33
66
0
33
66
0
33
66
0
33
66
0
33
66
0
33
66
0
33
66
0
33
66
0
33
66
0
33
66
0
33
66
0
33
66
0
33
66
0
33
66
0
33
66
0
33
66
0
33
66
0
33
66
0
33
66
0
33
66
0
33
66
0
33
66
0
33
66
0
33
66
0
33
66
0
33
66
0
33
66
0
33
66
0
33
66
0
33
66
0
33
33
33
33
33
33
66
140
0
66
140
0
66
140
0
66
140
0
33
66
0
66
140
0
66
140
0
66
140
0
66
140
0
33
66
0
66
140
0
66
140
0
66
140
0
66
140
0
33
66
0
66
140
0
66
140
0
66
140
0
66
140
0
33
66
0
33
66
0
33
66
0
66
140
0
33
66
0
33
66
0
33
66
0
33
66
0
33
66
0
33
66
0
33
66
0
33
66
0
33
66
0
33
66
0
33
66
0
33
66
0
33
66
0
33
66
0
33
66
0
33
66
0
33
66
0
33
66
0
33
66
0
33
66
0
33
66
0
33
66
0
33
66
0
33
66
0
33
66
0
33
66
0
33
66
0
33
66
0
33
66
0
33
66
0
33
66
0
33
66
0
33
66
0
33
66
0
33
66
0
33
66
0
33
66
0
33
66
0
33
66
0
33
33
33
33
33
33
33
33
33
33
33
33
33
33
33
33
33
33
33
33
33
33
33
33
33
33
33
33
33
33
33
33
33
33
33
33
33
33
33
33
33
33
33
33
33
33
33
33
33
33
33
33
33
33
33
33
33
33
33
33
33
33
33
33
33
33
33
33
33
33
33
33
33
33
33
33
33
33
33
33
33
33
33
33
33
33
33
33
33
33
33
33
33
33
33
33
33
33
33
33
33
33
33
33
33
33
33
33
33
33
33
33
33
33
33
33
33
33
33
33
33
33
33
33
33
33
33
33
33
33
33
33
33
33
33
33
33
33
33
33
33
33
33
33
33
33
33
33
33
33
33
33
33
33
33
33
33
33
33
33
33
33
33
33
33
33
33
33
33
33
33
33
33
33
33
33
33
33
33
33
33
33
33
33
33
33
33
33
33
33
33
33
33
33
33
