P3
# Created by GIMP version 2.10.8 PNM plug-in
48 16
255
255
255
255
255
255
255
255
255
255
255
255
255
104
19
3
104
19
3
104
19
3
104
19
3
104
19
3
104
19
3
255
255
255
255
255
255
255
255
255
255
255
255
255
255
255
255
255
255
255
255
255
255
255
255
255
255
255
255
255
255
255
255
255
104
19
3
104
19
3
104
19
3
104
19
3
104
19
3
104
19
3
255
255
255
255
255
255
255
255
255
255
255
255
255
255
255
255
255
255
255
255
255
255
255
255
255
255
255
255
255
255
255
255
255
104
19
3
104
19
3
104
19
3
104
19
3
104
19
3
104
19
3
255
255
255
255
255
255
255
255
255
255
255
255
255
255
255
255
255
255
255
255
255
104
19
3
133
29
8
133
29
8
133
29
8
133
29
8
133
29
8
133
29
8
104
19
3
255
255
255
255
255
255
255
255
255
255
255
255
255
255
255
255
255
255
255
255
255
255
255
255
255
255
255
104
19
3
133
29
8
133
29
8
133
29
8
133
29
8
133
29
8
133
29
8
104
19
3
255
255
255
255
255
255
255
255
255
255
255
255
255
255
255
255
255
255
255
255
255
255
255
255
255
255
255
104
19
3
133
29
8
133
29
8
133
29
8
133
29
8
133
29
8
133
29
8
104
19
3
255
255
255
255
255
255
255
255
255
255
255
255
255
255
255
104
19
3
104
19
3
104
19
3
104
19
3
104
19
3
104
19
3
104
19
3
104
19
3
104
19
3
104
19
3
255
255
255
255
255
255
255
255
255
255
255
255
255
255
255
255
255
255
255
255
255
104
19
3
104
19
3
104
19
3
104
19
3
104
19
3
104
19
3
104
19
3
104
19
3
104
19
3
104
19
3
255
255
255
255
255
255
255
255
255
255
255
255
255
255
255
255
255
255
255
255
255
104
19
3
104
19
3
104
19
3
104
19
3
104
19
3
104
19
3
104
19
3
104
19
3
104
19
3
104
19
3
255
255
255
255
255
255
255
255
255
104
19
3
133
29
8
104
19
3
104
19
3
0
41
143
0
41
143
0
41
143
0
41
143
104
19
3
104
19
3
133
29
8
104
19
3
255
255
255
255
255
255
255
255
255
255
255
255
255
255
255
104
19
3
133
29
8
104
19
3
104
19
3
0
41
143
0
41
143
0
41
143
0
41
143
104
19
3
104
19
3
133
29
8
104
19
3
255
255
255
255
255
255
255
255
255
255
255
255
255
255
255
104
19
3
133
29
8
104
19
3
104
19
3
0
41
143
0
41
143
0
41
143
0
41
143
104
19
3
104
19
3
133
29
8
104
19
3
255
255
255
255
255
255
104
19
3
133
29
8
133
29
8
0
30
112
0
30
112
0
30
112
0
30
112
0
30
112
0
30
112
133
29
8
133
29
8
104
19
3
104
19
3
255
255
255
255
255
255
255
255
255
255
255
255
104
19
3
133
29
8
133
29
8
0
30
112
0
30
112
0
30
112
0
30
112
0
30
112
0
30
112
133
29
8
133
29
8
104
19
3
255
255
255
255
255
255
255
255
255
255
255
255
104
19
3
104
19
3
133
29
8
133
29
8
0
30
112
0
30
112
0
30
112
0
30
112
0
30
112
0
30
112
133
29
8
133
29
8
104
19
3
255
255
255
255
255
255
104
19
3
133
29
8
133
29
8
104
19
3
0
30
112
104
19
3
104
19
3
0
30
112
104
19
3
133
29
8
133
29
8
104
19
3
104
19
3
255
255
255
255
255
255
255
255
255
255
255
255
104
19
3
133
29
8
133
29
8
104
19
3
0
30
112
104
19
3
104
19
3
0
30
112
104
19
3
133
29
8
133
29
8
104
19
3
255
255
255
255
255
255
255
255
255
255
255
255
104
19
3
104
19
3
133
29
8
133
29
8
104
19
3
0
30
112
104
19
3
104
19
3
0
30
112
104
19
3
133
29
8
133
29
8
104
19
3
255
255
255
255
255
255
104
19
3
198
198
198
198
198
198
104
19
3
177
43
20
177
43
20
177
43
20
177
43
20
104
19
3
198
198
198
198
198
198
164
164
164
104
19
3
255
255
255
255
255
255
255
255
255
255
255
255
104
19
3
198
198
198
198
198
198
104
19
3
177
43
20
177
43
20
177
43
20
177
43
20
104
19
3
198
198
198
198
198
198
104
19
3
255
255
255
255
255
255
255
255
255
255
255
255
104
19
3
164
164
164
198
198
198
198
198
198
104
19
3
177
43
20
177
43
20
177
43
20
177
43
20
104
19
3
198
198
198
198
198
198
104
19
3
255
255
255
255
255
255
104
19
3
133
29
8
133
29
8
104
19
3
177
43
20
177
43
20
177
43
20
177
43
20
104
19
3
133
29
8
133
29
8
104
19
3
104
19
3
255
255
255
255
255
255
255
255
255
255
255
255
104
19
3
133
29
8
133
29
8
104
19
3
177
43
20
177
43
20
177
43
20
177
43
20
104
19
3
133
29
8
133
29
8
104
19
3
255
255
255
255
255
255
255
255
255
255
255
255
104
19
3
104
19
3
133
29
8
133
29
8
104
19
3
177
43
20
177
43
20
177
43
20
177
43
20
104
19
3
133
29
8
133
29
8
104
19
3
255
255
255
255
255
255
104
19
3
198
198
198
198
198
198
104
19
3
52
52
52
52
52
52
52
52
52
52
52
52
104
19
3
198
198
198
198
198
198
164
164
164
104
19
3
255
255
255
255
255
255
255
255
255
104
19
3
164
164
164
198
198
198
198
198
198
104
19
3
52
52
52
52
52
52
52
52
52
52
52
52
104
19
3
198
198
198
198
198
198
164
164
164
104
19
3
255
255
255
255
255
255
255
255
255
104
19
3
164
164
164
198
198
198
198
198
198
104
19
3
52
52
52
52
52
52
52
52
52
52
52
52
104
19
3
198
198
198
198
198
198
104
19
3
255
255
255
255
255
255
104
19
3
133
29
8
198
198
198
52
52
52
81
81
81
81
81
81
81
81
81
81
81
81
52
52
52
198
198
198
133
29
8
164
164
164
104
19
3
255
255
255
255
255
255
255
255
255
104
19
3
164
164
164
133
29
8
198
198
198
52
52
52
81
81
81
81
81
81
81
81
81
81
81
81
52
52
52
198
198
198
133
29
8
164
164
164
104
19
3
255
255
255
255
255
255
255
255
255
104
19
3
164
164
164
133
29
8
198
198
198
52
52
52
81
81
81
81
81
81
81
81
81
81
81
81
52
52
52
198
198
198
133
29
8
104
19
3
255
255
255
255
255
255
104
19
3
198
198
198
198
198
198
52
52
52
81
81
81
101
101
101
101
101
101
81
81
81
52
52
52
198
198
198
198
198
198
164
164
164
104
19
3
255
255
255
255
255
255
255
255
255
104
19
3
164
164
164
198
198
198
198
198
198
52
52
52
81
81
81
101
101
101
101
101
101
81
81
81
52
52
52
198
198
198
198
198
198
164
164
164
104
19
3
255
255
255
255
255
255
255
255
255
104
19
3
164
164
164
198
198
198
198
198
198
52
52
52
81
81
81
101
101
101
101
101
101
81
81
81
52
52
52
198
198
198
198
198
198
104
19
3
255
255
255
255
255
255
104
19
3
133
29
8
104
19
3
52
52
52
81
81
81
101
101
101
101
101
101
81
81
81
52
52
52
104
19
3
133
29
8
133
29
8
104
19
3
255
255
255
255
255
255
255
255
255
104
19
3
133
29
8
133
29
8
104
19
3
52
52
52
81
81
81
101
101
101
101
101
101
81
81
81
52
52
52
104
19
3
133
29
8
133
29
8
104
19
3
255
255
255
255
255
255
255
255
255
104
19
3
133
29
8
133
29
8
104
19
3
52
52
52
81
81
81
101
101
101
101
101
101
81
81
81
52
52
52
104
19
3
133
29
8
104
19
3
255
255
255
255
255
255
104
19
3
133
29
8
104
19
3
52
52
52
81
81
81
101
101
101
101
101
101
81
81
81
52
52
52
104
19
3
133
29
8
133
29
8
104
19
3
255
255
255
255
255
255
255
255
255
104
19
3
133
29
8
133
29
8
104
19
3
52
52
52
81
81
81
101
101
101
101
101
101
81
81
81
52
52
52
104
19
3
133
29
8
133
29
8
104
19
3
255
255
255
255
255
255
255
255
255
104
19
3
133
29
8
133
29
8
104
19
3
52
52
52
81
81
81
101
101
101
101
101
101
81
81
81
52
52
52
104
19
3
133
29
8
104
19
3
255
255
255
104
19
3
113
24
4
133
29
8
104
19
3
52
52
52
81
81
81
101
101
101
101
101
101
81
81
81
52
52
52
104
19
3
133
29
8
133
29
8
113
24
4
104
19
3
255
255
255
104
19
3
113
24
4
133
29
8
133
29
8
104
19
3
52
52
52
81
81
81
101
101
101
101
101
101
81
81
81
52
52
52
104
19
3
133
29
8
133
29
8
113
24
4
104
19
3
255
255
255
104
19
3
113
24
4
133
29
8
133
29
8
104
19
3
52
52
52
81
81
81
101
101
101
101
101
101
81
81
81
52
52
52
104
19
3
133
29
8
113
24
4
104
19
3
104
19
3
113
24
4
52
52
52
52
52
52
81
81
81
101
101
101
81
81
81
81
81
81
101
101
101
81
81
81
52
52
52
52
52
52
113
24
4
113
24
4
104
19
3
255
255
255
104
19
3
113
24
4
113
24
4
52
52
52
52
52
52
81
81
81
101
101
101
81
81
81
81
81
81
101
101
101
81
81
81
52
52
52
52
52
52
113
24
4
113
24
4
104
19
3
255
255
255
104
19
3
113
24
4
113
24
4
52
52
52
52
52
52
81
81
81
101
101
101
81
81
81
81
81
81
101
101
101
81
81
81
52
52
52
52
52
52
113
24
4
104
19
3
104
19
3
104
19
3
52
52
52
81
81
81
81
81
81
124
26
5
124
26
5
124
26
5
124
26
5
81
81
81
81
81
81
52
52
52
104
19
3
104
19
3
104
19
3
255
255
255
104
19
3
104
19
3
104
19
3
52
52
52
81
81
81
81
81
81
124
26
5
124
26
5
124
26
5
124
26
5
81
81
81
81
81
81
52
52
52
104
19
3
104
19
3
104
19
3
255
255
255
104
19
3
104
19
3
104
19
3
52
52
52
81
81
81
81
81
81
124
26
5
124
26
5
124
26
5
124
26
5
81
81
81
81
81
81
52
52
52
104
19
3
104
19
3
