P3
# Created by GIMP version 2.10.8 PNM plug-in
16 8
255
255
255
255
255
255
255
255
255
255
0
41
143
0
73
234
0
56
184
0
41
143
255
255
255
255
255
255
0
41
143
0
56
184
0
73
234
0
41
143
255
255
255
255
255
255
255
255
255
255
255
255
255
255
255
255
255
255
0
41
143
0
56
184
0
41
143
255
255
255
255
255
255
255
255
255
255
255
255
0
41
143
0
56
184
0
41
143
255
255
255
255
255
255
255
255
255
255
255
255
255
255
255
255
255
255
255
255
255
0
41
143
255
255
255
255
255
255
255
255
255
255
255
255
255
255
255
255
255
255
0
41
143
255
255
255
255
255
255
255
255
255
255
255
255
255
255
255
255
255
255
255
255
255
255
255
255
255
255
255
255
255
255
255
255
255
255
255
255
255
255
255
255
255
255
255
255
255
255
255
255
255
255
255
255
255
255
255
255
255
255
255
255
255
255
255
255
255
255
255
255
255
0
105
166
0
155
242
0
105
166
255
255
255
255
255
255
255
255
255
255
255
255
0
105
166
0
155
242
0
105
166
255
255
255
255
255
255
255
255
255
255
255
255
255
255
255
255
255
255
0
76
122
0
105
166
0
76
122
255
255
255
255
255
255
255
255
255
255
255
255
0
76
122
0
105
166
0
76
122
255
255
255
255
255
255
255
255
255
255
255
255
255
255
255
255
255
255
0
76
122
0
76
122
0
76
122
255
255
255
255
255
255
255
255
255
255
255
255
0
76
122
0
76
122
0
76
122
255
255
255
255
255
255
255
255
255
255
255
255
255
255
255
255
255
255
255
255
255
0
76
122
255
255
255
255
255
255
255
255
255
255
255
255
255
255
255
255
255
255
0
76
122
255
255
255
255
255
255
255
255
255
255
255
255
